<svg width="66" height="12" viewBox="0 0 66 12" fill="#667085" xmlns="http://www.w3.org/2000/svg">
<path d="M1.4858 6.46591V11H-0.000710189V0.818182H1.46591V4.60653H1.56037C1.73935 4.19555 2.01278 3.86908 2.38068 3.62713C2.74858 3.38518 3.22917 3.2642 3.82244 3.2642C4.34612 3.2642 4.8035 3.37192 5.1946 3.58736C5.58902 3.80279 5.89394 4.12429 6.10938 4.55185C6.32812 4.97609 6.4375 5.50639 6.4375 6.14276V11H4.95099V6.32173C4.95099 5.7616 4.80682 5.32741 4.51847 5.01918C4.23011 4.70762 3.82907 4.55185 3.31534 4.55185C2.96402 4.55185 2.64915 4.62642 2.37074 4.77557C2.09564 4.92472 1.87855 5.14347 1.71946 5.43182C1.56368 5.71686 1.4858 6.06155 1.4858 6.46591ZM11.6378 11.1541C10.9219 11.1541 10.2971 10.9901 9.76349 10.6619C9.22988 10.3338 8.81558 9.87476 8.5206 9.2848C8.22562 8.69484 8.07812 8.00544 8.07812 7.21662C8.07812 6.42448 8.22562 5.73177 8.5206 5.13849C8.81558 4.54522 9.22988 4.08452 9.76349 3.75639C10.2971 3.42827 10.9219 3.2642 11.6378 3.2642C12.3537 3.2642 12.9785 3.42827 13.5121 3.75639C14.0457 4.08452 14.46 4.54522 14.755 5.13849C15.05 5.73177 15.1974 6.42448 15.1974 7.21662C15.1974 8.00544 15.05 8.69484 14.755 9.2848C14.46 9.87476 14.0457 10.3338 13.5121 10.6619C12.9785 10.9901 12.3537 11.1541 11.6378 11.1541ZM11.6428 9.90625C12.1068 9.90625 12.4912 9.78362 12.7962 9.53835C13.1011 9.29309 13.3265 8.96662 13.4723 8.55895C13.6214 8.15128 13.696 7.70218 13.696 7.21165C13.696 6.72443 13.6214 6.27699 13.4723 5.86932C13.3265 5.45833 13.1011 5.12855 12.7962 4.87997C12.4912 4.63139 12.1068 4.5071 11.6428 4.5071C11.1754 4.5071 10.7876 4.63139 10.4794 4.87997C10.1745 5.12855 9.94744 5.45833 9.7983 5.86932C9.65246 6.27699 9.57955 6.72443 9.57955 7.21165C9.57955 7.70218 9.65246 8.15128 9.7983 8.55895C9.94744 8.96662 10.1745 9.29309 10.4794 9.53835C10.7876 9.78362 11.1754 9.90625 11.6428 9.90625ZM16.8567 11V3.36364H18.2836V4.60653H18.378C18.5371 4.18561 18.7973 3.85748 19.1586 3.62216C19.5198 3.38352 19.9524 3.2642 20.4561 3.2642C20.9666 3.2642 21.3941 3.38352 21.7388 3.62216C22.0868 3.8608 22.3437 4.18892 22.5094 4.60653H22.589C22.7712 4.19886 23.0613 3.87405 23.459 3.6321C23.8567 3.38684 24.3307 3.2642 24.8809 3.2642C25.5736 3.2642 26.1387 3.4813 26.5762 3.91548C27.017 4.34967 27.2374 5.00426 27.2374 5.87926V11H25.7509V6.01847C25.7509 5.50142 25.61 5.12689 25.3283 4.89489C25.0466 4.66288 24.7102 4.54688 24.3191 4.54688C23.8352 4.54688 23.459 4.69602 23.1905 4.99432C22.9221 5.2893 22.7878 5.6688 22.7878 6.13281V11H21.3063V5.92401C21.3063 5.50971 21.177 5.17661 20.9185 4.92472C20.66 4.67282 20.3236 4.54688 19.9093 4.54688C19.6275 4.54688 19.3674 4.62145 19.1287 4.7706C18.8934 4.91643 18.7028 5.12026 18.557 5.3821C18.4145 5.64394 18.3432 5.94721 18.3432 6.2919V11H16.8567ZM32.521 11.1541C31.7686 11.1541 31.1206 10.9934 30.5771 10.6719C30.0368 10.3471 29.6192 9.89134 29.3242 9.30469C29.0326 8.71473 28.8867 8.02367 28.8867 7.23153C28.8867 6.44934 29.0326 5.75994 29.3242 5.16335C29.6192 4.56676 30.0302 4.10109 30.5572 3.76633C31.0875 3.43158 31.7073 3.2642 32.4165 3.2642C32.8474 3.2642 33.265 3.33546 33.6694 3.47798C34.0737 3.6205 34.4367 3.84422 34.7582 4.14915C35.0797 4.45407 35.3332 4.85014 35.5188 5.33736C35.7044 5.82126 35.7972 6.40956 35.7972 7.10227V7.62926H29.7269V6.51562H34.3406C34.3406 6.12453 34.261 5.77817 34.1019 5.47656C33.9428 5.17164 33.7191 4.93134 33.4308 4.75568C33.1457 4.58002 32.811 4.49219 32.4265 4.49219C32.0089 4.49219 31.6443 4.59493 31.3327 4.80043C31.0245 5.0026 30.7859 5.26776 30.6168 5.59588C30.4511 5.92069 30.3683 6.27367 30.3683 6.65483V7.52486C30.3683 8.03527 30.4577 8.46946 30.6367 8.82741C30.819 9.18537 31.0726 9.45881 31.3974 9.64773C31.7222 9.83333 32.1017 9.92614 32.5359 9.92614C32.8176 9.92614 33.0745 9.88636 33.3065 9.80682C33.5385 9.72396 33.739 9.60133 33.908 9.43892C34.0771 9.27652 34.2063 9.07599 34.2958 8.83736L35.7028 9.09091C35.5901 9.50521 35.3879 9.86813 35.0962 10.1797C34.8079 10.4879 34.445 10.7282 34.0075 10.9006C33.5733 11.0696 33.0778 11.1541 32.521 11.1541ZM41.9458 6.05327V7.34091H37.4316V6.05327H41.9458ZM45.4135 0.818182V11H43.927V0.818182H45.4135ZM47.4134 11V3.36364H48.8999V11H47.4134ZM48.1641 2.18537C47.9055 2.18537 47.6835 2.09919 47.4979 1.92685C47.3156 1.75118 47.2244 1.54238 47.2244 1.30043C47.2244 1.05516 47.3156 0.846354 47.4979 0.674005C47.6835 0.498342 47.9055 0.410511 48.1641 0.410511C48.4226 0.410511 48.643 0.498342 48.8253 0.674005C49.0109 0.846354 49.1037 1.05516 49.1037 1.30043C49.1037 1.54238 49.0109 1.75118 48.8253 1.92685C48.643 2.09919 48.4226 2.18537 48.1641 2.18537ZM52.3862 6.46591V11H50.8997V3.36364H52.3265V4.60653H52.421C52.5967 4.20218 52.8717 3.87737 53.2463 3.6321C53.6241 3.38684 54.0997 3.2642 54.6731 3.2642C55.1935 3.2642 55.6492 3.37358 56.0403 3.59233C56.4314 3.80777 56.7347 4.12926 56.9501 4.55682C57.1655 4.98437 57.2733 5.51302 57.2733 6.14276V11H55.7868V6.32173C55.7868 5.76823 55.6426 5.3357 55.3542 5.02415C55.0659 4.70928 54.6698 4.55185 54.166 4.55185C53.8213 4.55185 53.5147 4.62642 53.2463 4.77557C52.9811 4.92472 52.7707 5.14347 52.6149 5.43182C52.4624 5.71686 52.3862 6.06155 52.3862 6.46591ZM62.5581 11.1541C61.8057 11.1541 61.1577 10.9934 60.6142 10.6719C60.0739 10.3471 59.6563 9.89134 59.3613 9.30469C59.0697 8.71473 58.9238 8.02367 58.9238 7.23153C58.9238 6.44934 59.0697 5.75994 59.3613 5.16335C59.6563 4.56676 60.0673 4.10109 60.5943 3.76633C61.1246 3.43158 61.7444 3.2642 62.4537 3.2642C62.8845 3.2642 63.3021 3.33546 63.7065 3.47798C64.1109 3.6205 64.4738 3.84422 64.7953 4.14915C65.1168 4.45407 65.3703 4.85014 65.5559 5.33736C65.7415 5.82126 65.8343 6.40956 65.8343 7.10227V7.62926H59.764V6.51562H64.3777C64.3777 6.12453 64.2981 5.77817 64.139 5.47656C63.9799 5.17164 63.7562 4.93134 63.4679 4.75568C63.1828 4.58002 62.8481 4.49219 62.4636 4.49219C62.046 4.49219 61.6814 4.59493 61.3699 4.80043C61.0616 5.0026 60.823 5.26776 60.6539 5.59588C60.4882 5.92069 60.4054 6.27367 60.4054 6.65483V7.52486C60.4054 8.03527 60.4949 8.46946 60.6738 8.82741C60.8561 9.18537 61.1097 9.45881 61.4345 9.64773C61.7593 9.83333 62.1388 9.92614 62.573 9.92614C62.8547 9.92614 63.1116 9.88636 63.3436 9.80682C63.5756 9.72396 63.7761 9.60133 63.9451 9.43892C64.1142 9.27652 64.2434 9.07599 64.3329 8.83736L65.7399 9.09091C65.6272 9.50521 65.425 9.86813 65.1333 10.1797C64.845 10.4879 64.4821 10.7282 64.0446 10.9006C63.6104 11.0696 63.1149 11.1541 62.5581 11.1541Z" fill="#101828"/>
</svg>
